<svg width="25" height="26" viewBox="0 0 25 26" fill="none" xmlns="http://www.w3.org/2000/svg">
<path d="M17 25V20.3333C17 19 17.1333 18.4667 16.3333 17.6667C20.0667 17.2667 23.6667 15.8 23.6667 9.66666C23.665 8.07328 23.0434 6.54307 21.9333 5.4C22.454 4.01595 22.406 2.48217 21.8 1.13333C21.8 1.13333 20.3333 0.733329 17.1333 2.86666C14.423 2.16078 11.577 2.16078 8.86667 2.86666C5.66667 0.733329 4.2 1.13333 4.2 1.13333C3.59398 2.48217 3.54604 4.01595 4.06667 5.4C2.9566 6.54307 2.33496 8.07328 2.33333 9.66666C2.33333 15.8 5.93333 17.2667 9.66667 17.6667C8.86667 18.4667 8.86667 19.2667 9 20.3333V25M9 22.3333C3.26667 24.2 3.26667 19 1 18.3333L9 22.3333Z" stroke="#13143C" stroke-width="2" stroke-linecap="round" stroke-linejoin="round"/>
</svg>
